name C:\Users\u0101727\Documents\MyRepositories\upper-imu-dc\Results\main_tracking\Case_48\ABD01_angularVelocities_bodyFrame.mot
datacolumns 4
datarows 47
range 8.06000000 8.52000000
endheader 
time	radius_imu_x	radius_imu_y	radius_imu_z	
          8.06000000	          1.28329766	          0.34088077	          0.57751617	
          8.07000000	          1.28193526	          0.31244421	          0.54086419	
          8.08000000	          1.28005136	          0.28539005	          0.50420864	
          8.09000000	          1.27766577	          0.25981303	          0.46793946	
          8.10000000	          1.27479816	          0.23578775	          0.43242091	
          8.11000000	          1.27147202	          0.21336813	          0.39798722	
          8.12000000	          1.26771809	          0.19258424	          0.36493918	
          8.13000000	          1.26357649	          0.17343881	          0.33354251	
          8.14000000	          1.25909750	          0.15590639	          0.30402853	
          8.15000000	          1.25434115	          0.13993634	          0.27659631	
          8.16000000	          1.24937607	          0.12545926	          0.25141480	
          8.17000000	          1.24427802	          0.11239510	          0.22862373	
          8.18000000	          1.23912868	          0.10066052	          0.20833314	
          8.19000000	          1.23401481	          0.09017341	          0.19062236	
          8.20000000	          1.22902832	          0.08085419	          0.17553923	
          8.21000000	          1.22426688	          0.07262508	          0.16309942	
          8.22000000	          1.21983455	          0.06540890	          0.15328547	
          8.23000000	          1.21584157	          0.05912761	          0.14604587	
          8.24000000	          1.21240293	          0.05370063	          0.14129506	
          8.25000000	          1.20963510	          0.04904527	          0.13891515	
          8.26000000	          1.20765129	          0.04508242	          0.13875978	
          8.27000000	          1.20655633	          0.04174814	          0.14066034	
          8.28000000	          1.20644190	          0.03900757	          0.14443404	
          8.29000000	          1.20738193	          0.03686568	          0.14989199	
          8.30000000	          1.20942807	          0.03537019	          0.15684568	
          8.31000000	          1.21260611	          0.03460510	          0.16511095	
          8.32000000	          1.21691385	          0.03467582	          0.17450924	
          8.33000000	          1.22232163	          0.03568848	          0.18486679	
          8.34000000	          1.22877550	          0.03772572	          0.19601315	
          8.35000000	          1.23620280	          0.04082134	          0.20778010	
          8.36000000	          1.24451834	          0.04493678	          0.22000136	
          8.37000000	          1.25362962	          0.04994396	          0.23251210	
          8.38000000	          1.26343964	          0.05561906	          0.24514763	
          8.39000000	          1.27384722	          0.06164914	          0.25774132	
          8.40000000	          1.28474551	          0.06764973	          0.27012262	
          8.41000000	          1.29602033	          0.07319060	          0.28211604	
          8.42000000	          1.30754950	          0.07782725	          0.29354081	
          8.43000000	          1.31920469	          0.08113577	          0.30421168	
          8.44000000	          1.33085587	          0.08274671	          0.31394083	
          8.45000000	          1.34237825	          0.08237266	          0.32254137	
          8.46000000	          1.35365990	          0.07982515	          0.32983217	
          8.47000000	          1.36460839	          0.07501953	          0.33564413	
          8.48000000	          1.37515476	          0.06796906	          0.33982794	
          8.49000000	          1.38525413	          0.05877095	          0.34226277	
          8.50000000	          1.39488314	          0.04758661	          0.34286457	
          8.51000000	          1.40403498	          0.03461860	          0.34159273	
          8.52000000	          1.41271243	          0.02008693	          0.33845442	
